<?xml version="1.0" standalone="no"?><!DOCTYPE svg PUBLIC "-//W3C//DTD SVG 1.1//EN" "http://www.w3.org/Graphics/SVG/1.1/DTD/svg11.dtd"><svg class="icon" height="512" viewBox="0 0 1024 1024" version="1.1" xmlns="http://www.w3.org/2000/svg"><path d="M792.76544 407.8848h-2.2272c-16.40448 0-29.85984 4.80768-42.81344 13.0304-11.35104-33.86368-40.20736-58.24512-77.36832-58.24512-16.39936 0-32.08704 4.8128-45.03552 13.0304-11.35616-33.85856-40.21248-58.25024-77.40416-58.25024-14.4896 0-27.9808 3.72736-39.89504 10.24V240.55296c0-47.4624-35.09248-85.90848-81.79712-85.90848-46.69952 0-84.58752 38.4768-84.58752 85.90848v333.56288l-51.33824-52.34688c-33.02912-33.57184-91.4944-28.78464-119.62368 0-28.1344 28.78464-46.57664 86.6816-6.30272 127.91296l236.23168 240.10752a84.9664 84.9664 0 0 0 15.86688 12.57984c43.06432 35.9424 92.43136 57.22112 196.78208 57.22112 238.39232 0 260.46976-131.6096 260.46976-293.92896V493.81888c-0.03584-47.45728-34.22208-85.93408-80.95744-85.93408m36.38272 257.75616c0 137.35424-0.61952 248.70912-215.936 248.70912-91.20256 0-145.96608-20.79744-187.45856-62.96576L202.12736 624.0768c-19.7888-20.2496-14.80192-46.11072 1.3824-62.70464 16.18944-16.55296 45.92128-17.13664 61.568-1.2544 0 0 39.23456 39.88992 73.04704 74.29632 16.01024 16.30208 32.0256 32.59392 48.0512 48.87552V249.60512c0-22.46656 17.93536-40.68864 40.07936-40.68864s37.25824 18.2272 37.25824 40.68864v275.85536h0.44032a23.59808 23.59808 0 0 0-0.44032 4.5312c0 12.48256 9.97376 22.62016 22.26688 22.62016s22.26688-10.10688 22.26688-22.62016c0-1.54624-0.15872-3.05152-0.44032-4.5312h0.44032V412.40576c0-22.46656 16-40.69376 38.13888-40.69376 0 0 39.20896-0.54784 39.20896 40.69376v149.22752h0.4352a23.59296 23.59296 0 0 0-0.4352 4.5312c0 12.48256 9.96864 22.62016 22.26688 22.62016s22.26688-10.112 22.26688-22.62016c0-1.54112-0.14848-3.05152-0.44032-4.5312h0.44032V457.62048c0-22.46144 15.74912-40.69376 37.888-40.69376 0 0 40.01792 2.57024 40.01792 40.69376v131.15904h0.44032a23.58272 23.58272 0 0 0-0.44032 4.52608c0 12.48256 9.97376 22.62528 22.272 22.62528 12.288 0 21.69856-10.112 21.69856-22.62528 0-1.536-0.1536-3.05152-0.40448-4.52608h0.40448V499.24608c0-22.46656 16.50176-40.68864 38.64576-40.68864 0 0 38.79424-1.60768 38.79424 40.68864v166.39488h-0.09728M308.608 368.66048V292.70016a132.59776 132.59776 0 0 1-11.07456-53.01248c0-72.0128 57.05216-130.38592 127.43168-130.38592s127.43168 58.37312 127.43168 130.38592c0 9.82016-1.13152 19.3792-3.16928 28.59008a60.0064 60.0064 0 0 1 41.02656 18.39104c4.08064-14.95552 6.49728-30.64832 6.49728-46.9504 0-97.04448-76.90752-175.73376-171.7504-175.73376S253.25568 142.67904 253.25568 239.7184c-0.03584 51.03104 21.3504 96.84992 55.35232 128.94208" fill="" /></svg>